<?xml version="1.0" encoding="utf-8"?>
<!-- Generator: Adobe Illustrator 26.5.0, SVG Export Plug-In . SVG Version: 6.00 Build 0)  -->
<svg version="1.1" id="Laag_1" xmlns="http://www.w3.org/2000/svg" xmlns:xlink="http://www.w3.org/1999/xlink" x="0px" y="0px"
	 viewBox="0 0 255.8 255.8" style="enable-background:new 0 0 255.8 255.8;" xml:space="preserve">
<style type="text/css">
	.st0{fill-rule:evenodd;clip-rule:evenodd;}
</style>
<g>
	<path class="st0" d="M251.2,27c6.1-6.1,6.1-16.1,0-22.2L251,4.6c-6.1-6.1-16-6.1-22.2,0L139,94.4c-6.1,6.1-16.1,6.1-22.2,0L27,4.6
		c-6.1-6.1-16.1-6.1-22.2,0L4.6,4.8c-6.1,6.1-6.1,16,0,22.2l89.8,89.8c6.1,6.1,6.1,16.1,0,22.2L4.6,228.8c-6.1,6.1-6.1,16.1,0,22.2
		l0.3,0.3c6.1,6.1,16,6.1,22.2,0l89.8-89.8c6.1-6.1,16.1-6.1,22.2,0l89.8,89.8c6.1,6.1,16.1,6.1,22.2,0l0.3-0.3
		c6.1-6.1,6.1-16,0-22.2L161.4,139c-6.1-6.1-6.1-16.1,0-22.2L251.2,27z"/>
</g>
</svg>
